<svg xmlns="http://www.w3.org/2000/svg" width="320" height="320" viewBox="0 0 320 320">
<defs><radialGradient id="b"><stop stop-color="#263451"/><stop offset="1" stop-color="#0d1425"/></radialGradient></defs>
<rect width="320" height="320" fill="url(#b)"/><circle cx="117" cy="76" r="1" fill="#d8c58b" opacity=".35"/><circle cx="190" cy="119" r="2" fill="#d8c58b" opacity=".35"/><circle cx="263" cy="162" r="3" fill="#d8c58b" opacity=".35"/><circle cx="76" cy="205" r="1" fill="#d8c58b" opacity=".35"/><circle cx="149" cy="248" r="2" fill="#d8c58b" opacity=".35"/><circle cx="222" cy="291" r="3" fill="#d8c58b" opacity=".35"/><circle cx="35" cy="64" r="1" fill="#d8c58b" opacity=".35"/><circle cx="108" cy="107" r="2" fill="#d8c58b" opacity=".35"/><circle cx="181" cy="150" r="3" fill="#d8c58b" opacity=".35"/><circle cx="254" cy="193" r="1" fill="#d8c58b" opacity=".35"/><circle cx="67" cy="236" r="2" fill="#d8c58b" opacity=".35"/><circle cx="140" cy="279" r="3" fill="#d8c58b" opacity=".35"/><circle cx="213" cy="52" r="1" fill="#d8c58b" opacity=".35"/><circle cx="286" cy="95" r="2" fill="#d8c58b" opacity=".35"/><circle cx="99" cy="138" r="3" fill="#d8c58b" opacity=".35"/><circle cx="172" cy="181" r="1" fill="#d8c58b" opacity=".35"/><circle cx="245" cy="224" r="2" fill="#d8c58b" opacity=".35"/><circle cx="58" cy="267" r="3" fill="#d8c58b" opacity=".35"/><circle cx="131" cy="40" r="1" fill="#d8c58b" opacity=".35"/><circle cx="204" cy="83" r="2" fill="#d8c58b" opacity=".35"/><circle cx="277" cy="126" r="3" fill="#d8c58b" opacity=".35"/><circle cx="90" cy="169" r="1" fill="#d8c58b" opacity=".35"/><circle cx="163" cy="212" r="2" fill="#d8c58b" opacity=".35"/><circle cx="236" cy="255" r="3" fill="#d8c58b" opacity=".35"/><circle cx="49" cy="28" r="1" fill="#d8c58b" opacity=".35"/><circle cx="122" cy="71" r="2" fill="#d8c58b" opacity=".35"/>
<g transform="translate(160.0,160.0)" stroke="#92d9e7" stroke-width="2" fill="none" opacity=".5"><circle r="126"/><circle r="115"/><path d="M0 -131 V-142" transform="rotate(0)"/><path d="M0 -131 V-142" transform="rotate(30)"/><path d="M0 -131 V-142" transform="rotate(60)"/><path d="M0 -131 V-142" transform="rotate(90)"/><path d="M0 -131 V-142" transform="rotate(120)"/><path d="M0 -131 V-142" transform="rotate(150)"/><path d="M0 -131 V-142" transform="rotate(180)"/><path d="M0 -131 V-142" transform="rotate(210)"/><path d="M0 -131 V-142" transform="rotate(240)"/><path d="M0 -131 V-142" transform="rotate(270)"/><path d="M0 -131 V-142" transform="rotate(300)"/><path d="M0 -131 V-142" transform="rotate(330)"/><path d="M0 -102 L89 51 L-89 51Z M0 102 L-89 -51 L89 -51Z" transform="rotate(39)" opacity=".25"/></g>
<g transform="translate(160.0,160.0)" stroke="#92d9e7" stroke-width="5" fill="#92d9e7" stroke-linecap="round" stroke-linejoin="round"><path d="M0 -45 Q-32 -72 -66 -49 L-66 54 Q-28 34 0 61 Q28 34 66 54 L66 -49 Q32 -72 0 -45Z" fill-opacity=".2"/><path d="M0 -45 V61 M-51 -21 L-16 -11 M-51 0 L-16 10 M16 -11 L51 -21 M16 10 L51 0" fill="none"/></g>
<path d="M22 55 V22 H55 M265 22 H298 V55 M22 265 V298 H55 M265 298 H298 V265" fill="none" stroke="#b79c66" stroke-width="2"/>
</svg>